<?xml version="1.0" encoding="UTF-8" standalone="no" ?>
<!DOCTYPE svg PUBLIC "-//W3C//DTD SVG 1.1//EN" "http://www.w3.org/Graphics/SVG/1.1/DTD/svg11.dtd">
<svg xmlns="http://www.w3.org/2000/svg" xmlns:xlink="http://www.w3.org/1999/xlink" version="1.1" width="1080" height="1080" viewBox="0 0 1080 1080" xml:space="preserve">
<desc>Created with Fabric.js 5.2.4</desc>
<defs>
</defs>
<rect x="0" y="0" width="100%" height="100%" fill="transparent"></rect>
<g transform="matrix(1 0 0 1 540 540)" id="444e02a5-4c4e-4963-b6e9-3c5b76cf1042"  >
<rect style="stroke: none; stroke-width: 1; stroke-dasharray: none; stroke-linecap: butt; stroke-dashoffset: 0; stroke-linejoin: miter; stroke-miterlimit: 4; fill: rgb(255,255,255); fill-rule: nonzero; opacity: 1; visibility: hidden;" vector-effect="non-scaling-stroke"  x="-540" y="-540" rx="0" ry="0" width="1080" height="1080" />
</g>
<g transform="matrix(1 0 0 1 540 540)" id="decfee8b-9c3c-474d-be55-854f7fc27e57"  >
</g>
<g transform="matrix(3.93 0 0 3.93 540 540)"  >
<g style=""   >
		<g transform="matrix(1 0 0 1 0 0)"  >
<rect style="stroke: none; stroke-width: 1; stroke-dasharray: none; stroke-linecap: butt; stroke-dashoffset: 0; stroke-linejoin: miter; stroke-miterlimit: 4; fill: rgb(0,0,0); fill-rule: nonzero; opacity: 1;" vector-effect="non-scaling-stroke"  x="-137.5" y="-137.5" rx="0" ry="0" width="275" height="275" />
</g>
		<g transform="matrix(1 0 0 1 -81 0.5)"  >
<path style="stroke: none; stroke-width: 1; stroke-dasharray: none; stroke-linecap: butt; stroke-dashoffset: 0; stroke-linejoin: miter; stroke-miterlimit: 4; fill: rgb(0,255,64); fill-rule: evenodd; opacity: 1;" vector-effect="non-scaling-stroke"  transform=" translate(-56.5, -138)" d="M 66.2183 132.614 C 66.22 133.217 66.5766 134.042 67.0151 134.457 L 68.7774 136.124 C 69.2158 136.539 69.9524 136.569 70.4194 136.193 L 73.0167 134.101 C 73.4852 133.723 73.8655 132.929 73.8664 132.324 L 73.8876 112.835 C 73.8882 112.231 73.5323 112.075 73.0928 112.486 L 66.9761 118.204 C 66.5365 118.614 66.1815 119.439 66.1831 120.039 L 66.2183 132.614 Z M 42.0793 140.332 C 42.5541 139.96 43.3266 139.955 43.8065 140.322 L 45.7921 141.839 C 46.2712 142.206 46.6589 142.991 46.6579 143.594 L 46.636 156.095 C 46.6352 156.698 46.2764 157.516 45.8316 157.925 L 39.8028 163.471 C 39.3594 163.879 39 163.72 39 163.115 L 39 143.836 C 39 143.232 39.3847 142.441 39.8595 142.069 L 42.0793 140.332 Z M 64.4241 158.398 C 65.027 158.399 65.8761 158.73 66.3192 159.136 L 72.9725 165.237 C 73.4162 165.644 73.2877 165.974 72.6854 165.975 L 40.3378 166 C 39.7351 166 39.6034 165.663 40.0411 165.249 L 46.5027 159.127 C 46.9412 158.712 47.784 158.376 48.3885 158.377 L 64.4241 158.398 Z M 64.4241 117.576 C 65.027 117.575 65.8761 117.244 66.3192 116.838 L 72.9725 110.737 C 73.4162 110.33 73.288 110 72.6862 110 L 40.3623 110 C 39.7605 110 39.6277 110.336 40.064 110.749 L 46.5054 116.849 C 46.9423 117.263 47.784 117.598 48.3885 117.597 L 64.4241 117.576 Z M 66.3675 143.698 C 66.3716 143.094 66.7492 142.288 67.2128 141.899 L 68.9443 140.443 C 69.4073 140.055 70.1877 140.016 70.6859 140.355 L 72.9496 141.899 C 73.4486 142.24 73.8565 143.005 73.8609 143.611 L 74 162.909 C 74.0043 163.513 73.64 163.682 73.1841 163.284 L 67.0999 157.973 C 66.6451 157.576 66.2794 156.766 66.2835 156.159 L 66.3675 143.698 Z M 45.8687 118.441 C 46.3099 118.851 46.6677 119.672 46.6677 120.277 L 46.6677 132.406 C 46.6677 133.01 46.32 133.842 45.8911 134.265 L 43.8853 136.243 C 43.4566 136.666 42.7332 136.698 42.2675 136.314 L 39.8415 134.311 C 39.3768 133.927 39 133.125 39 132.525 L 39 113.151 C 39 112.548 39.3597 112.393 39.7989 112.802 L 45.8687 118.441 Z" stroke-linecap="round" />
</g>
		<g transform="matrix(1 0 0 1 -39.5 0.5)"  >
<path style="stroke: none; stroke-width: 1; stroke-dasharray: none; stroke-linecap: butt; stroke-dashoffset: 0; stroke-linejoin: miter; stroke-miterlimit: 4; fill: rgb(0,255,64); fill-rule: evenodd; opacity: 1;" vector-effect="non-scaling-stroke"  transform=" translate(-98, -138)" d="M 107.996 132.614 C 107.998 133.217 108.365 134.042 108.816 134.457 L 110.628 136.124 C 111.079 136.539 111.837 136.569 112.317 136.193 L 114.989 134.101 C 115.47 133.723 115.862 132.929 115.863 132.324 L 115.884 112.835 C 115.885 112.231 115.519 112.075 115.067 112.486 L 108.775 118.204 C 108.323 118.614 107.958 119.439 107.96 120.039 L 107.996 132.614 Z M 83.1673 140.332 C 83.6556 139.96 84.4502 139.955 84.9438 140.322 L 86.9862 141.839 C 87.4789 142.206 87.8778 142.991 87.8766 143.594 L 87.8542 156.095 C 87.8534 156.698 87.4843 157.516 87.0268 157.925 L 80.8257 163.471 C 80.3697 163.879 80 163.72 80 163.115 L 80 143.836 C 80 143.232 80.3957 142.441 80.884 142.069 L 83.1673 140.332 Z M 106.151 158.398 C 106.771 158.399 107.644 158.73 108.1 159.136 L 114.943 165.237 C 115.399 165.644 115.267 165.974 114.648 165.975 L 81.376 166 C 80.7561 166 80.6207 165.663 81.0708 165.249 L 87.7171 159.127 C 88.1681 158.712 89.035 158.376 89.6568 158.377 L 106.151 158.398 Z M 106.151 117.576 C 106.771 117.575 107.644 117.244 108.1 116.838 L 114.943 110.737 C 115.399 110.33 115.268 110 114.649 110 L 81.4012 110 C 80.7822 110 80.6456 110.336 81.0944 110.749 L 87.7199 116.849 C 88.1692 117.263 89.035 117.598 89.6568 117.597 L 106.151 117.576 Z M 108.149 143.698 C 108.154 143.094 108.542 142.288 109.019 141.899 L 110.8 140.443 C 111.276 140.055 112.079 140.016 112.591 140.355 L 114.92 141.899 C 115.433 142.24 115.852 143.005 115.857 143.611 L 116 162.909 C 116.004 163.513 115.63 163.682 115.161 163.284 L 108.903 157.973 C 108.435 157.576 108.059 156.766 108.063 156.159 L 108.149 143.698 Z M 87.065 118.441 C 87.5188 118.851 87.8867 119.672 87.8867 120.277 L 87.8867 132.406 C 87.8867 133.01 87.5292 133.842 87.088 134.265 L 85.0249 136.243 C 84.584 136.666 83.8399 136.698 83.3608 136.314 L 80.8655 134.311 C 80.3876 133.927 80 133.125 80 132.525 L 80 113.151 C 80 112.548 80.3699 112.393 80.8218 112.802 L 87.065 118.441 Z" stroke-linecap="round" />
</g>
		<g transform="matrix(1 0 0 1 39 0.5)"  >
<path style="stroke: none; stroke-width: 1; stroke-dasharray: none; stroke-linecap: butt; stroke-dashoffset: 0; stroke-linejoin: miter; stroke-miterlimit: 4; fill: rgb(0,255,64); fill-rule: evenodd; opacity: 1;" vector-effect="non-scaling-stroke"  transform=" translate(-176.5, -138)" d="M 186.218 132.614 C 186.22 133.217 186.577 134.042 187.015 134.457 L 188.777 136.124 C 189.216 136.539 189.952 136.569 190.419 136.193 L 193.017 134.101 C 193.485 133.723 193.866 132.929 193.866 132.324 L 193.888 112.835 C 193.888 112.231 193.532 112.075 193.093 112.486 L 186.976 118.204 C 186.537 118.614 186.182 119.439 186.183 120.039 L 186.218 132.614 Z M 162.079 140.332 C 162.554 139.96 163.327 139.955 163.806 140.322 L 165.792 141.839 C 166.271 142.206 166.659 142.991 166.658 143.594 L 166.636 156.095 C 166.635 156.698 166.276 157.516 165.832 157.925 L 159.803 163.471 C 159.359 163.879 159 163.72 159 163.115 L 159 143.836 C 159 143.232 159.385 142.441 159.859 142.069 L 162.079 140.332 Z M 184.424 158.398 C 185.027 158.399 185.876 158.73 186.319 159.136 L 192.973 165.237 C 193.416 165.644 193.288 165.974 192.685 165.975 L 160.338 166 C 159.735 166 159.603 165.663 160.041 165.249 L 166.503 159.127 C 166.941 158.712 167.784 158.376 168.389 158.377 L 184.424 158.398 Z M 184.424 117.576 C 185.027 117.575 185.876 117.244 186.319 116.838 L 192.973 110.737 C 193.416 110.33 193.288 110 192.686 110 L 160.362 110 C 159.76 110 159.628 110.336 160.064 110.749 L 166.505 116.849 C 166.942 117.263 167.784 117.598 168.389 117.597 L 184.424 117.576 Z M 186.367 143.698 C 186.372 143.094 186.749 142.288 187.213 141.899 L 188.944 140.443 C 189.407 140.055 190.188 140.016 190.686 140.355 L 192.95 141.899 C 193.449 142.24 193.857 143.005 193.861 143.611 L 194 162.909 C 194.004 163.513 193.64 163.682 193.184 163.284 L 187.1 157.973 C 186.645 157.576 186.279 156.766 186.283 156.159 L 186.367 143.698 Z M 165.869 118.441 C 166.31 118.851 166.668 119.672 166.668 120.277 L 166.668 132.406 C 166.668 133.01 166.32 133.842 165.891 134.265 L 163.885 136.243 C 163.457 136.666 162.733 136.698 162.267 136.314 L 159.841 134.311 C 159.377 133.927 159 133.125 159 132.525 L 159 113.151 C 159 112.548 159.36 112.393 159.799 112.802 L 165.869 118.441 Z" stroke-linecap="round" />
</g>
		<g transform="matrix(1 0 0 1 80.5 0.5)"  >
<path style="stroke: none; stroke-width: 1; stroke-dasharray: none; stroke-linecap: butt; stroke-dashoffset: 0; stroke-linejoin: miter; stroke-miterlimit: 4; fill: rgb(0,255,64); fill-rule: evenodd; opacity: 1;" vector-effect="non-scaling-stroke"  transform=" translate(-218, -138)" d="M 227.996 132.614 C 227.998 133.217 228.365 134.042 228.816 134.457 L 230.628 136.124 C 231.079 136.539 231.837 136.569 232.317 136.193 L 234.989 134.101 C 235.47 133.723 235.862 132.929 235.863 132.324 L 235.884 112.835 C 235.885 112.231 235.519 112.075 235.067 112.486 L 228.775 118.204 C 228.323 118.614 227.958 119.439 227.96 120.039 L 227.996 132.614 Z M 203.167 140.332 C 203.656 139.96 204.45 139.955 204.944 140.322 L 206.986 141.839 C 207.479 142.206 207.878 142.991 207.877 143.594 L 207.854 156.095 C 207.853 156.698 207.484 157.516 207.027 157.925 L 200.826 163.471 C 200.37 163.879 200 163.72 200 163.115 L 200 143.836 C 200 143.232 200.396 142.441 200.884 142.069 L 203.167 140.332 Z M 226.151 158.398 C 226.771 158.399 227.644 158.73 228.1 159.136 L 234.943 165.237 C 235.399 165.644 235.267 165.974 234.648 165.975 L 201.376 166 C 200.756 166 200.621 165.663 201.071 165.249 L 207.717 159.127 C 208.168 158.712 209.035 158.376 209.657 158.377 L 226.151 158.398 Z M 226.151 117.576 C 226.771 117.575 227.644 117.244 228.1 116.838 L 234.943 110.737 C 235.399 110.33 235.268 110 234.649 110 L 201.401 110 C 200.782 110 200.646 110.336 201.094 110.749 L 207.72 116.849 C 208.169 117.263 209.035 117.598 209.657 117.597 L 226.151 117.576 Z M 228.149 143.698 C 228.154 143.094 228.542 142.288 229.019 141.899 L 230.8 140.443 C 231.276 140.055 232.079 140.016 232.591 140.355 L 234.92 141.899 C 235.433 142.24 235.852 143.005 235.857 143.611 L 236 162.909 C 236.004 163.513 235.63 163.682 235.161 163.284 L 228.903 157.973 C 228.435 157.576 228.059 156.766 228.063 156.159 L 228.149 143.698 Z M 207.065 118.441 C 207.519 118.851 207.887 119.672 207.887 120.277 L 207.887 132.406 C 207.887 133.01 207.529 133.842 207.088 134.265 L 205.025 136.243 C 204.584 136.666 203.84 136.698 203.361 136.314 L 200.866 134.311 C 200.388 133.927 200 133.125 200 132.525 L 200 113.151 C 200 112.548 200.37 112.393 200.822 112.802 L 207.065 118.441 Z" stroke-linecap="round" />
</g>
		<g transform="matrix(1 0 0 1 0 1)"  >
<path style="stroke: none; stroke-width: 1; stroke-dasharray: none; stroke-linecap: butt; stroke-dashoffset: 0; stroke-linejoin: miter; stroke-miterlimit: 4; fill: rgb(0,255,64); fill-rule: evenodd; opacity: 1;" vector-effect="non-scaling-stroke"  transform=" translate(-137.5, -138.5)" d="M 142.366 119 C 142.581 119 142.793 119.042 142.992 119.124 C 143.19 119.206 143.37 119.326 143.522 119.478 C 143.673 119.63 143.794 119.81 143.876 120.008 C 143.958 120.206 144 120.418 144 120.633 L 144 130.259 C 144 130.473 143.958 130.686 143.876 130.884 C 143.794 131.082 143.673 131.262 143.522 131.414 C 143.37 131.565 143.19 131.686 142.992 131.768 C 142.793 131.85 142.581 131.892 142.366 131.892 L 132.633 131.892 C 132.419 131.892 132.206 131.85 132.008 131.768 C 131.81 131.686 131.629 131.565 131.478 131.414 C 131.326 131.262 131.206 131.082 131.124 130.884 C 131.042 130.686 131 130.473 131 130.259 L 131 120.633 C 131 120.2 131.172 119.784 131.478 119.478 C 131.785 119.172 132.2 119 132.633 119 L 142.366 119 Z M 142.366 145.108 C 142.581 145.108 142.793 145.15 142.992 145.232 C 143.19 145.314 143.37 145.434 143.522 145.586 C 143.673 145.738 143.794 145.918 143.876 146.116 C 143.958 146.314 144 146.526 144 146.741 L 144 156.367 C 144 156.581 143.958 156.794 143.876 156.992 C 143.794 157.19 143.673 157.37 143.522 157.522 C 143.37 157.673 143.19 157.794 142.992 157.876 C 142.793 157.958 142.581 158 142.366 158 L 132.633 158 C 132.419 158 132.206 157.958 132.008 157.876 C 131.81 157.794 131.629 157.673 131.478 157.522 C 131.326 157.37 131.206 157.19 131.124 156.992 C 131.042 156.793 131 156.581 131 156.367 L 131 146.741 C 131 146.308 131.172 145.892 131.478 145.586 C 131.785 145.28 132.2 145.108 132.633 145.108 L 142.366 145.108 Z" stroke-linecap="round" />
</g>
</g>
</g>
<g transform="matrix(3.93 0 0 3.93 540 540)"  >
<g style=""   >
		<g transform="matrix(1 0 0 1 0 0)"  >
<rect style="stroke: none; stroke-width: 1; stroke-dasharray: none; stroke-linecap: butt; stroke-dashoffset: 0; stroke-linejoin: miter; stroke-miterlimit: 4; fill: rgb(0,0,0); fill-rule: nonzero; opacity: 1;" vector-effect="non-scaling-stroke"  x="-137.5" y="-137.5" rx="0" ry="0" width="275" height="275" />
</g>
		<g transform="matrix(1 0 0 1 -95 0.5)"  >
<path style="stroke: none; stroke-width: 1; stroke-dasharray: none; stroke-linecap: butt; stroke-dashoffset: 0; stroke-linejoin: miter; stroke-miterlimit: 4; fill: rgb(0,255,64); fill-rule: evenodd; opacity: 1;" vector-effect="non-scaling-stroke"  transform=" translate(-42.5, -138)" d="M 53.8843 131.652 C 53.8862 132.363 54.304 133.335 54.8177 133.824 L 56.8821 135.789 C 57.3957 136.278 58.2585 136.313 58.8056 135.87 L 61.8481 133.404 C 62.3969 132.96 62.8425 132.024 62.8434 131.311 L 62.8684 108.341 C 62.869 107.63 62.4522 107.445 61.9372 107.93 L 54.772 114.669 C 54.2571 115.153 53.8412 116.124 53.8431 116.831 L 53.8843 131.652 Z M 25.6072 140.748 C 26.1633 140.31 27.0683 140.304 27.6304 140.737 L 29.9565 142.525 C 30.5177 142.957 30.9719 143.883 30.9706 144.593 L 30.9451 159.326 C 30.9441 160.037 30.5238 161.001 30.0028 161.483 L 22.9404 168.019 C 22.421 168.5 22 168.313 22 167.6 L 22 144.878 C 22 144.166 22.4507 143.233 23.0068 142.796 L 25.6072 140.748 Z M 51.7825 162.041 C 52.4888 162.042 53.4834 162.432 54.0025 162.911 L 61.7964 170.101 C 62.3161 170.581 62.1656 170.97 61.46 170.97 L 23.5671 171 C 22.8612 171 22.7069 170.603 23.2196 170.115 L 30.7889 162.9 C 31.3025 162.41 32.2898 162.014 32.998 162.015 L 51.7825 162.041 Z M 51.7825 113.928 C 52.4888 113.927 53.4834 113.537 54.0025 113.059 L 61.7964 105.868 C 62.3161 105.389 62.166 105 61.461 105 L 23.5958 105 C 22.8909 105 22.7353 105.396 23.2464 105.883 L 30.7921 113.072 C 31.3038 113.56 32.2898 113.955 32.998 113.954 L 51.7825 113.928 Z M 54.059 144.716 C 54.0638 144.003 54.5062 143.054 55.0492 142.595 L 57.0776 140.88 C 57.6199 140.422 58.5341 140.375 59.1177 140.776 L 61.7695 142.596 C 62.3541 142.997 62.8319 143.898 62.8371 144.613 L 63 167.357 C 63.0051 168.069 62.5783 168.269 62.0443 167.799 L 54.917 161.54 C 54.3842 161.072 53.9559 160.118 53.9607 159.401 L 54.059 144.716 Z M 30.0462 114.948 C 30.563 115.432 30.9821 116.399 30.9821 117.112 L 30.9821 131.407 C 30.9821 132.119 30.5749 133.1 30.0724 133.598 L 27.7228 135.929 C 27.2206 136.427 26.3732 136.466 25.8276 136.013 L 22.9857 133.652 C 22.4414 133.2 22 132.255 22 131.548 L 22 108.713 C 22 108.003 22.4213 107.821 22.9359 108.302 L 30.0462 114.948 Z" stroke-linecap="round" />
</g>
		<g transform="matrix(1 0 0 1 -46 0.5)"  >
<path style="stroke: none; stroke-width: 1; stroke-dasharray: none; stroke-linecap: butt; stroke-dashoffset: 0; stroke-linejoin: miter; stroke-miterlimit: 4; fill: rgb(0,255,64); fill-rule: evenodd; opacity: 1;" vector-effect="non-scaling-stroke"  transform=" translate(-91.5, -138)" d="M 103.44 131.652 C 103.442 132.363 103.88 133.335 104.419 133.824 L 106.584 135.789 C 107.122 136.278 108.027 136.313 108.601 135.87 L 111.792 133.404 C 112.367 132.96 112.835 132.024 112.836 131.311 L 112.862 108.341 C 112.863 107.63 112.425 107.445 111.885 107.93 L 104.371 114.669 C 103.831 115.153 103.394 116.124 103.396 116.831 L 103.44 131.652 Z M 73.7832 140.748 C 74.3664 140.31 75.3155 140.304 75.9051 140.737 L 78.3446 142.525 C 78.9332 142.957 79.4096 143.883 79.4082 144.593 L 79.3814 159.326 C 79.3804 160.037 78.9396 161.001 78.3932 161.483 L 70.9862 168.019 C 70.4415 168.5 70 168.313 70 167.6 L 70 144.878 C 70 144.166 70.4727 143.233 71.0559 142.796 L 73.7832 140.748 Z M 101.235 162.041 C 101.976 162.042 103.019 162.432 103.564 162.911 L 111.738 170.101 C 112.283 170.581 112.125 170.97 111.385 170.97 L 71.6435 171 C 70.9032 171 70.7414 170.603 71.279 170.115 L 79.2176 162.9 C 79.7563 162.41 80.7918 162.014 81.5345 162.015 L 101.235 162.041 Z M 101.235 113.928 C 101.976 113.927 103.019 113.537 103.564 113.059 L 111.738 105.868 C 112.283 105.389 112.125 105 111.386 105 L 71.6737 105 C 70.9343 105 70.7712 105.396 71.3072 105.883 L 79.221 113.072 C 79.7576 113.56 80.7918 113.955 81.5345 113.954 L 101.235 113.928 Z M 103.623 144.716 C 103.628 144.003 104.092 143.054 104.661 142.595 L 106.789 140.88 C 107.358 140.422 108.316 140.375 108.928 140.776 L 111.71 142.596 C 112.323 142.997 112.824 143.898 112.829 144.613 L 113 167.357 C 113.005 168.069 112.558 168.269 111.998 167.799 L 104.523 161.54 C 103.964 161.072 103.515 160.118 103.52 159.401 L 103.623 144.716 Z M 78.4387 114.948 C 78.9808 115.432 79.4203 116.399 79.4203 117.112 L 79.4203 131.407 C 79.4203 132.119 78.9932 133.1 78.4662 133.598 L 76.0019 135.929 C 75.4753 136.427 74.5865 136.466 74.0143 136.013 L 71.0338 133.652 C 70.463 133.2 70 132.255 70 131.548 L 70 108.713 C 70 108.003 70.4419 107.821 70.9816 108.302 L 78.4387 114.948 Z" stroke-linecap="round" />
</g>
		<g transform="matrix(1 0 0 1 46.5 0.5)"  >
<path style="stroke: none; stroke-width: 1; stroke-dasharray: none; stroke-linecap: butt; stroke-dashoffset: 0; stroke-linejoin: miter; stroke-miterlimit: 4; fill: rgb(0,255,64); fill-rule: evenodd; opacity: 1;" vector-effect="non-scaling-stroke"  transform=" translate(-184, -138)" d="M 195.662 131.652 C 195.664 132.363 196.092 133.335 196.618 133.824 L 198.733 135.789 C 199.259 136.278 200.143 136.313 200.703 135.87 L 203.82 133.404 C 204.382 132.96 204.839 132.024 204.84 131.311 L 204.865 108.341 C 204.866 107.63 204.439 107.445 203.911 107.93 L 196.571 114.669 C 196.044 115.153 195.618 116.124 195.62 116.831 L 195.662 131.652 Z M 166.695 140.748 C 167.265 140.31 168.192 140.304 168.768 140.737 L 171.151 142.525 C 171.725 142.957 172.191 143.883 172.189 144.593 L 172.163 159.326 C 172.162 160.037 171.732 161.001 171.198 161.483 L 163.963 168.019 C 163.431 168.5 163 168.313 163 167.6 L 163 144.878 C 163 144.166 163.462 143.233 164.031 142.796 L 166.695 140.748 Z M 193.509 162.041 C 194.232 162.042 195.251 162.432 195.783 162.911 L 203.767 170.101 C 204.299 170.581 204.145 170.97 203.422 170.97 L 164.605 171 C 163.882 171 163.724 170.603 164.249 170.115 L 172.003 162.9 C 172.529 162.41 173.541 162.014 174.266 162.015 L 193.509 162.041 Z M 193.509 113.928 C 194.232 113.927 195.251 113.537 195.783 113.059 L 203.767 105.868 C 204.299 105.389 204.146 105 203.423 105 L 164.635 105 C 163.913 105 163.753 105.396 164.277 105.883 L 172.007 113.072 C 172.531 113.56 173.541 113.955 174.266 113.954 L 193.509 113.928 Z M 195.841 144.716 C 195.846 144.003 196.299 143.054 196.855 142.595 L 198.933 140.88 C 199.489 140.422 200.425 140.375 201.023 140.776 L 203.74 142.596 C 204.338 142.997 204.828 143.898 204.833 144.613 L 205 167.357 C 205.005 168.069 204.568 168.269 204.021 167.799 L 196.72 161.54 C 196.174 161.072 195.735 160.118 195.74 159.401 L 195.841 144.716 Z M 171.242 114.948 C 171.772 115.432 172.201 116.399 172.201 117.112 L 172.201 131.407 C 172.201 132.119 171.784 133.1 171.269 133.598 L 168.862 135.929 C 168.348 136.427 167.48 136.466 166.921 136.013 L 164.01 133.652 C 163.452 133.2 163 132.255 163 131.548 L 163 108.713 C 163 108.003 163.432 107.821 163.959 108.302 L 171.242 114.948 Z" stroke-linecap="round" />
</g>
		<g transform="matrix(1 0 0 1 95.5 0.5)"  >
<path style="stroke: none; stroke-width: 1; stroke-dasharray: none; stroke-linecap: butt; stroke-dashoffset: 0; stroke-linejoin: miter; stroke-miterlimit: 4; fill: rgb(0,255,64); fill-rule: evenodd; opacity: 1;" vector-effect="non-scaling-stroke"  transform=" translate(-233, -138)" d="M 244.662 131.652 C 244.664 132.363 245.092 133.335 245.618 133.824 L 247.733 135.789 C 248.259 136.278 249.143 136.313 249.703 135.87 L 252.82 133.404 C 253.382 132.96 253.839 132.024 253.84 131.311 L 253.865 108.341 C 253.866 107.63 253.439 107.445 252.911 107.93 L 245.571 114.669 C 245.044 115.153 244.618 116.124 244.62 116.831 L 244.662 131.652 Z M 215.695 140.748 C 216.265 140.31 217.192 140.304 217.768 140.737 L 220.151 142.525 C 220.725 142.957 221.191 143.883 221.189 144.593 L 221.163 159.326 C 221.162 160.037 220.732 161.001 220.198 161.483 L 212.963 168.019 C 212.431 168.5 212 168.313 212 167.6 L 212 144.878 C 212 144.166 212.462 143.233 213.031 142.796 L 215.695 140.748 Z M 242.509 162.041 C 243.232 162.042 244.251 162.432 244.783 162.911 L 252.767 170.101 C 253.299 170.581 253.145 170.97 252.422 170.97 L 213.605 171 C 212.882 171 212.724 170.603 213.249 170.115 L 221.003 162.9 C 221.529 162.41 222.541 162.014 223.266 162.015 L 242.509 162.041 Z M 242.509 113.928 C 243.232 113.927 244.251 113.537 244.783 113.059 L 252.767 105.868 C 253.299 105.389 253.146 105 252.423 105 L 213.635 105 C 212.913 105 212.753 105.396 213.277 105.883 L 221.007 113.072 C 221.531 113.56 222.541 113.955 223.266 113.954 L 242.509 113.928 Z M 244.841 144.716 C 244.846 144.003 245.299 143.054 245.855 142.595 L 247.933 140.88 C 248.489 140.422 249.425 140.375 250.023 140.776 L 252.74 142.596 C 253.338 142.997 253.828 143.898 253.833 144.613 L 254 167.357 C 254.005 168.069 253.568 168.269 253.021 167.799 L 245.72 161.54 C 245.174 161.072 244.735 160.118 244.74 159.401 L 244.841 144.716 Z M 220.242 114.948 C 220.772 115.432 221.201 116.399 221.201 117.112 L 221.201 131.407 C 221.201 132.119 220.784 133.1 220.269 133.598 L 217.862 135.929 C 217.348 136.427 216.48 136.466 215.921 136.013 L 213.01 133.652 C 212.452 133.2 212 132.255 212 131.548 L 212 108.713 C 212 108.003 212.432 107.821 212.959 108.302 L 220.242 114.948 Z" stroke-linecap="round" />
</g>
		<g transform="matrix(1 0 0 1 0.5 1.5)"  >
<path style="stroke: none; stroke-width: 1; stroke-dasharray: none; stroke-linecap: butt; stroke-dashoffset: 0; stroke-linejoin: miter; stroke-miterlimit: 4; fill: rgb(0,255,64); fill-rule: evenodd; opacity: 1;" vector-effect="non-scaling-stroke"  transform=" translate(-138, -139)" d="M 143.989 116 C 144.254 116 144.515 116.05 144.759 116.146 C 145.003 116.243 145.225 116.385 145.411 116.564 C 145.598 116.743 145.746 116.955 145.847 117.189 C 145.948 117.422 146 117.673 146 117.926 L 146 129.28 C 146 129.533 145.948 129.783 145.847 130.017 C 145.746 130.251 145.598 130.463 145.411 130.642 C 145.225 130.821 145.003 130.963 144.759 131.059 C 144.515 131.156 144.254 131.206 143.989 131.206 L 132.01 131.206 C 131.746 131.206 131.484 131.156 131.24 131.059 C 130.996 130.963 130.775 130.821 130.588 130.642 C 130.401 130.463 130.253 130.25 130.152 130.017 C 130.052 129.783 130 129.532 130 129.279 L 130 117.926 C 130 117.415 130.212 116.925 130.589 116.564 C 130.966 116.203 131.477 116 132.01 116 L 143.989 116 Z M 143.989 146.794 C 144.254 146.794 144.515 146.844 144.759 146.94 C 145.003 147.037 145.225 147.179 145.411 147.358 C 145.598 147.537 145.746 147.749 145.847 147.983 C 145.948 148.216 146 148.467 146 148.72 L 146 160.074 C 146 160.327 145.948 160.577 145.847 160.811 C 145.746 161.045 145.598 161.257 145.411 161.436 C 145.225 161.615 145.003 161.757 144.759 161.853 C 144.515 161.95 144.254 162 143.989 162 L 132.01 162 C 131.746 162 131.484 161.95 131.24 161.853 C 130.996 161.757 130.775 161.615 130.588 161.436 C 130.401 161.257 130.253 161.044 130.152 160.811 C 130.052 160.577 130 160.326 130 160.073 L 130 148.72 C 130 148.209 130.212 147.719 130.589 147.358 C 130.966 146.997 131.477 146.794 132.01 146.794 L 143.989 146.794 Z" stroke-linecap="round" />
</g>
</g>
</g>
</svg>